<svg xmlns="http://www.w3.org/2000/svg" data-name="Layer 1" viewBox="0 0 40 40"><defs></defs><g id="ic-user"><g id="_6-User" data-name="6-User"><g id="Group_18" data-name="Group 18"><path id="Path_92" data-name="Path 92" class="cls-1" d="M20,22.21a6.12,6.12,0,1,0-6.12-6.12h0A6.13,6.13,0,0,0,20,22.21ZM20,12a4.08,4.08,0,1,1-4.08,4.08A4.08,4.08,0,0,1,20,12Z"></path><path id="Path_93" data-name="Path 93" class="cls-1" d="M20,4.88A16.31,16.31,0,1,0,36.31,21.19,16.31,16.31,0,0,0,20,4.88Zm0,2A14.25,14.25,0,0,1,31.93,29a15.23,15.23,0,0,0-21.38-2.47A15.66,15.66,0,0,0,8.07,29,14.25,14.25,0,0,1,20,6.92Zm0,28.54A14.24,14.24,0,0,1,9.35,30.65a13.24,13.24,0,0,1,21.3,0A14.24,14.24,0,0,1,20,35.46Z"></path></g></g></g></svg>