<svg xmlns="http://www.w3.org/2000/svg" data-name="Layer 1" viewBox="0 0 40 40"><defs></defs><g id="ic-cart"><path id="shopping-bag" class="cls-1" d="M35.91,36.17,33.24,10.75a1,1,0,0,0-1-.94h-5V8.67a6.47,6.47,0,1,0-12.93,0V9.81h-5a1.05,1.05,0,0,0-1,.94L5.52,36.17a1,1,0,0,0,.93,1.15H34.87a1,1,0,0,0,1.05-1A.41.41,0,0,0,35.91,36.17ZM16.35,8.67a4.38,4.38,0,1,1,8.75,0V9.81H16.35ZM7.73,35.24l2.45-23.33h4.07v2.3a1,1,0,0,0,1,1.09,1,1,0,0,0,1.09-1V11.91H25.1v2.3a1,1,0,0,0,1,1.09,1,1,0,0,0,1.09-1V11.91h4.07l2.45,23.33Z"></path></g></svg>