<svg xmlns="http://www.w3.org/2000/svg" data-name="Layer 1" viewBox="0 0 40 40"><defs></defs><path class="cls-1" d="M20,38.38a2.14,2.14,0,0,1-1.4-.53c-1.41-1.24-2.78-2.4-4-3.43a73.47,73.47,0,0,1-8.72-8.2,13.06,13.06,0,0,1-3.5-8.59,11,11,0,0,1,2.8-7.54,9.53,9.53,0,0,1,7-3.08h.11a8.94,8.94,0,0,1,5.52,1.92A11,11,0,0,1,20,11.18,12.13,12.13,0,0,1,22.2,8.93,8.89,8.89,0,0,1,27.71,7h.11a9.53,9.53,0,0,1,7,3.08,11,11,0,0,1,2.8,7.54,13.06,13.06,0,0,1-3.5,8.59,73.53,73.53,0,0,1-8.73,8.19c-1.2,1-2.57,2.2-4,3.44a2.14,2.14,0,0,1-1.4.53ZM12.19,9.19a7.35,7.35,0,0,0-5.41,2.37,8.84,8.84,0,0,0-2.22,6.06,10.89,10.89,0,0,0,3,7.21A73.66,73.66,0,0,0,16,32.75c1.2,1,2.55,2.18,4,3.41l4-3.41a72.9,72.9,0,0,0,8.46-7.92,10.89,10.89,0,0,0,3-7.21,8.84,8.84,0,0,0-2.22-6.06,7.35,7.35,0,0,0-5.41-2.37,6.8,6.8,0,0,0-4.28,1.46,9.8,9.8,0,0,0-2.36,2.73A1.37,1.37,0,0,1,20,14a1.41,1.41,0,0,1-.7-.19,1.51,1.51,0,0,1-.47-.47,9.8,9.8,0,0,0-2.36-2.73,6.8,6.8,0,0,0-4.2-1.46Z"></path></svg>